<svg id="Group_17" data-name="Group 17" xmlns="http://www.w3.org/2000/svg" width="70" height="70" viewBox="0 0 70 70">
  <circle id="Ellipse_353" data-name="Ellipse 353" cx="35" cy="35" r="35" fill="#28246b"/>
  <g id="Recived" transform="translate(19.885 22)">
    <path id="Path_550" data-name="Path 550" d="M29.818,80.793l-2.92-6.4a3.944,3.944,0,0,0-3.58-2.3h-1.86a.728.728,0,1,0,0,1.455h1.86A2.486,2.486,0,0,1,25.573,75l2.532,5.552H21.628a.728.728,0,0,0-.661.423l-1.255,2.718a2.486,2.486,0,0,1-2.251,1.441H12.4a2.487,2.487,0,0,1-2.251-1.441L8.9,80.971a.728.728,0,0,0-.661-.423H1.986l3.068-5.7a2.476,2.476,0,0,1,2.183-1.3h1.3a.728.728,0,1,0,0-1.455h-1.3a3.929,3.929,0,0,0-3.465,2.07L.225,80.748A.725.725,0,0,0,0,81.275c0,.013,0,.026,0,.038s0,.025,0,.038v6.743a5.545,5.545,0,0,0,5.538,5.538H24.461A5.545,5.545,0,0,0,30,88.093V81.351c0-.013,0-.025,0-.038s0-.025,0-.038a.725.725,0,0,0-.182-.482Zm-1.273,7.3a4.088,4.088,0,0,1-4.083,4.083H5.538a4.088,4.088,0,0,1-4.083-4.083V82H7.771l1.059,2.3A3.947,3.947,0,0,0,12.4,86.584h5.058A3.946,3.946,0,0,0,21.035,84.3L22.094,82h6.451v6.09Zm0,0" transform="translate(0 -66.854)" fill="#fff" stroke="#fff" stroke-width="1"/>
    <path id="Path_551" data-name="Path 551" d="M141.689,9.049l3.986,3.224a.727.727,0,0,0,.92,0l3.923-3.224a.728.728,0,1,0-.924-1.124l-2.733,2.247V.869a.728.728,0,0,0-1.455,0v9.314l-2.8-2.265a.728.728,0,0,0-.915,1.131Zm0,0" transform="translate(-131.133 -0.141)" fill="#fff" stroke="#fff" stroke-width="1"/>
  </g>
</svg>
