<svg xmlns="http://www.w3.org/2000/svg" width="71" height="70" viewBox="0 0 71 70">
  <g id="Group_17" data-name="Group 17" transform="translate(0)">
    <ellipse id="Ellipse_353" data-name="Ellipse 353" cx="35.5" cy="35" rx="35.5" ry="35" transform="translate(0)" fill="#f92b20"/>
    <g id="need" transform="translate(21 20)">
      <path id="Path_552" data-name="Path 552" d="M292,52.39l2.056,1.521a.307.307,0,0,1-.178.552l-.645,0h0a.3.3,0,0,1-.3-.3.879.879,0,0,0-1.758.011,2.063,2.063,0,0,0,1.5,1.97v.043a.879.879,0,1,0,1.758,0v-.044a2.061,2.061,0,0,0,1.506-2v-.006A2.07,2.07,0,0,0,295.1,52.5l-2.055-1.521a.3.3,0,0,1,.18-.545h.646a.3.3,0,0,1,.3.3.879.879,0,1,0,1.758,0,2.063,2.063,0,0,0-1.5-1.983v-.042a.879.879,0,1,0-1.758,0v.041A2.059,2.059,0,0,0,292,52.39Z" transform="translate(-274.101 -45.027)" fill="#fff"/>
      <path id="Path_553" data-name="Path 553" d="M212.6,14.843a7.421,7.421,0,1,0-7.423-7.421A7.431,7.431,0,0,0,212.6,14.843Zm0-13.085a5.664,5.664,0,1,1-5.665,5.664A5.671,5.671,0,0,1,212.6,1.758Z" transform="translate(-193.159 0)" fill="#fff"/>
      <path id="Path_554" data-name="Path 554" d="M29.4,261.713a2.867,2.867,0,0,0-3.9-.6l-3.344,2.237a2.756,2.756,0,0,0-2.428-1.455H17.337a6.529,6.529,0,0,0-10.213,1.651l-.448.274-.116-.339a.879.879,0,0,0-1.116-.547L.595,264.594a.879.879,0,0,0-.547,1.116l2.934,8.582a.879.879,0,0,0,1.116.547l4.849-1.657a.879.879,0,0,0,.538-1.144l7.695-.238a9.992,9.992,0,0,0,5.812-1.861l5.8-4.128a2.866,2.866,0,0,0,.6-4.1ZM4.36,272.891l-2.365-6.918,3.186-1.089L7.546,271.8Zm23.414-8.513-5.8,4.128a8.244,8.244,0,0,1-4.807,1.536h-.027l-8.248.255-1.631-4.77.991-.606h0a.887.887,0,0,0,.33-.362,4.774,4.774,0,0,1,7.756-1.178.894.894,0,0,0,.639.275h2.747a1,1,0,1,1,0,1.991H14.763a.879.879,0,0,0,0,1.758h4.959a2.756,2.756,0,0,0,2.676-2.1l4.079-2.729.015-.01a1.111,1.111,0,0,1,1.282,1.815Z" transform="translate(0 -244.886)" fill="#fff"/>
    </g>
  </g>
</svg>
