<svg width="7" height="6" xmlns="http://www.w3.org/2000/svg" xmlns:xlink="http://www.w3.org/1999/xlink" xmlns:svgjs="http://svgjs.com/svgjs" viewBox="0.5 0 6 6" fill="#28246b" stroke-miterlimit="100" stroke="#28246b" stroke-width=".3"><svg xmlns="http://www.w3.org/2000/svg" width="7" height="6" viewBox="0.75 0.5 5.5 5.5"><path paint-order="stroke fill markers" fill-rule="evenodd" d="M5.444 4.055c-.299-.3-.656-.521-1.045-.655a1.589 1.589 0 1 0-2.49-1.31c0 .543.275 1.023.691 1.31a2.742 2.742 0 0 0-1.045.655C1.035 4.575.75 5.265.75 6h.43c0-1.28 1.04-2.32 2.32-2.32 1.28 0 2.32 1.04 2.32 2.32h.43c0-.735-.286-1.425-.806-1.945zM3.5 3.25c-.64 0-1.16-.52-1.16-1.16 0-.64.52-1.16 1.16-1.16.64 0 1.16.52 1.16 1.16 0 .64-.52 1.16-1.16 1.16z"/></svg></svg>