<svg width="7" height="7" xmlns="http://www.w3.org/2000/svg" xmlns:xlink="http://www.w3.org/1999/xlink" xmlns:svgjs="http://svgjs.com/svgjs" fill="#28246b"><svg xmlns="http://www.w3.org/2000/svg" width="7" height="7" viewBox="0.912 0.787 5.625 5.625"><path paint-order="stroke fill markers" fill-rule="evenodd" d="M4.944.787H2.506C1.55.787.912 1.472.912 2.451V4.75c0 .98.636 1.663 1.594 1.663h2.438c.957 0 1.594-.683 1.594-1.663V2.45c0-.98-.637-1.664-1.594-1.664zm-2.438.422h2.438c.717 0 1.172.488 1.172 1.242V4.75c0 .754-.455 1.242-1.172 1.242H2.506c-.718 0-1.172-.488-1.172-1.242V2.45c0-.753.456-1.242 1.172-1.242zm.33 1.66a.732.732 0 1 0 .701.942h.59v.31l.002.028a.211.211 0 0 0 .42-.028v-.31h.374v.31l.002.028a.21.21 0 0 0 .42-.028V3.6l-.002-.029a.21.21 0 0 0-.21-.182H4.33h-.793a.732.732 0 0 0-.7-.52zm0 .421a.31.31 0 1 1 0 .62.31.31 0 0 1 0-.62z"/></svg></svg>