<svg width="19" height="18" xmlns="http://www.w3.org/2000/svg" xmlns:xlink="http://www.w3.org/1999/xlink" xmlns:svgjs="http://svgjs.com/svgjs" viewBox="298 68 19 18"><svg width="19" height="18" xmlns="http://www.w3.org/2000/svg" xmlns:xlink="http://www.w3.org/1999/xlink" xmlns:svgjs="http://svgjs.com/svgjs" viewBox="0.371 0 18.257 18" fill="#7cc249" x="298" y="68"><svg xmlns="http://www.w3.org/2000/svg" xmlns:xlink="http://www.w3.org/1999/xlink" width="19" height="18" viewBox="0.75 0.25 17.75 17.5"><path paint-order="stroke fill markers" fill-rule="evenodd" d="M9.625 17.75C4.717 17.75.75 13.839.75 9S4.717.25 9.625.25C14.533.25 18.5 4.161 18.5 9s-3.967 8.75-8.875 8.75z"/></svg></svg><svg width="5" height="8" xmlns="http://www.w3.org/2000/svg" xmlns:xlink="http://www.w3.org/1999/xlink" xmlns:svgjs="http://svgjs.com/svgjs" viewBox="305 73 5 8" x="305" y="73"><svg width="0" height="8" xmlns="http://www.w3.org/2000/svg" xmlns:xlink="http://www.w3.org/1999/xlink" xmlns:svgjs="http://svgjs.com/svgjs" fill="none" stroke-miterlimit="100" stroke-linecap="round" stroke="#fff" stroke-width="2" x="307" y="73"><svg xmlns="http://www.w3.org/2000/svg" xmlns:xlink="http://www.w3.org/1999/xlink" width="0" height="8"><path paint-order="stroke fill markers" d="M.5.25v0"/></svg></svg><svg width="5" height="6" xmlns="http://www.w3.org/2000/svg" xmlns:xlink="http://www.w3.org/1999/xlink" xmlns:svgjs="http://svgjs.com/svgjs" viewBox="0 0.083 5 5.833" fill="none" stroke-miterlimit="100" stroke-linecap="round" stroke="#fff" stroke-width="2" x="305" y="74"><svg xmlns="http://www.w3.org/2000/svg" width="5" height="6" viewBox="0.4 0.655 4.216 4.919"><path paint-order="stroke fill markers" d="M4.264.655H1.63a1.23 1.23 0 0 0 0 2.46h1.757a1.23 1.23 0 1 1 0 2.459H.4L4.264.655"/></svg></svg></svg></svg>