<svg width="19" height="18" xmlns="http://www.w3.org/2000/svg" xmlns:xlink="http://www.w3.org/1999/xlink" xmlns:svgjs="http://svgjs.com/svgjs" viewBox="419 68 19 18"><svg width="19" height="18" xmlns="http://www.w3.org/2000/svg" xmlns:xlink="http://www.w3.org/1999/xlink" xmlns:svgjs="http://svgjs.com/svgjs" viewBox="0.371 0 18.257 18" fill="#f92b20" x="419" y="68"><svg xmlns="http://www.w3.org/2000/svg" xmlns:xlink="http://www.w3.org/1999/xlink" width="19" height="18" viewBox="0.75 0.25 17.75 17.5"><path paint-order="stroke fill markers" fill-rule="evenodd" d="M9.625 17.75C4.717 17.75.75 13.839.75 9S4.717.25 9.625.25C14.533.25 18.5 4.161 18.5 9s-3.967 8.75-8.875 8.75z"/></svg></svg><svg width="9" height="8" xmlns="http://www.w3.org/2000/svg" xmlns:xlink="http://www.w3.org/1999/xlink" xmlns:svgjs="http://svgjs.com/svgjs" viewBox="424 73 9 8" x="424" y="73"><svg width="2" height="4" xmlns="http://www.w3.org/2000/svg" xmlns:xlink="http://www.w3.org/1999/xlink" xmlns:svgjs="http://svgjs.com/svgjs" viewBox="0 0.064 2 3.873" fill="#fff" x="429" y="73"><svg xmlns="http://www.w3.org/2000/svg" xmlns:xlink="http://www.w3.org/1999/xlink" width="2" height="4" viewBox="0.265 0.951 1.193 2.309"><path paint-order="stroke fill markers" fill-rule="evenodd" d="M.473 2.09l.515.38c.057.043.028.138-.045.139H.782a.075.075 0 0 1-.076-.074.22.22 0 1 0-.44.002c.002.235.16.432.376.493v.01a.22.22 0 1 0 .439 0v-.01a.512.512 0 0 0 .376-.5v-.002a.518.518 0 0 0-.208-.41l-.514-.38C.676 1.693.707 1.6.78 1.6H.94c.042 0 .076.034.076.076a.22.22 0 0 0 .44 0 .516.516 0 0 0-.376-.496v-.01a.22.22 0 0 0-.44 0v.01a.516.516 0 0 0-.168.91z"/></svg></svg><svg width="4" height="4" xmlns="http://www.w3.org/2000/svg" xmlns:xlink="http://www.w3.org/1999/xlink" xmlns:svgjs="http://svgjs.com/svgjs" viewBox="0 0.001 4 3.999" fill="#fff" x="428" y="73"><svg xmlns="http://www.w3.org/2000/svg" xmlns:xlink="http://www.w3.org/1999/xlink" width="4" height="4" viewBox="0.005 0.25 3.712 3.711"><path paint-order="stroke fill markers" fill-rule="evenodd" d="M1.861 3.96a1.858 1.858 0 0 0 1.856-1.855A1.857 1.857 0 0 0 1.861.25 1.858 1.858 0 0 0 .005 2.105c0 1.023.833 1.856 1.856 1.856zm0-3.27c.781 0 1.417.635 1.417 1.415a1.418 1.418 0 0 1-2.833 0C.445 1.325 1.08.69 1.86.69z"/></svg></svg><svg width="9" height="4" xmlns="http://www.w3.org/2000/svg" xmlns:xlink="http://www.w3.org/1999/xlink" xmlns:svgjs="http://svgjs.com/svgjs" viewBox="0.434 0 8.131 4" fill="#fff" x="424" y="77"><svg xmlns="http://www.w3.org/2000/svg" width="9" height="4" viewBox="1 0.06 7.5 3.69"><path paint-order="stroke fill markers" fill-rule="evenodd" d="M8.349.457a.717.717 0 0 0-.976-.15l-.836.56A.688.688 0 0 0 5.93.503h-.596A1.64 1.64 0 0 0 4.217.06 1.627 1.627 0 0 0 2.78.916l-.112.068L2.639.9a.22.22 0 0 0-.278-.136l-1.213.414a.22.22 0 0 0-.136.279L1.745 3.6a.22.22 0 0 0 .28.137l1.212-.414a.22.22 0 0 0 .134-.286l1.923-.06c.524 0 1.027-.161 1.454-.465l1.45-1.032a.716.716 0 0 0 .15-1.024zM2.089 3.25l-.59-1.73.796-.272.591 1.73-.796.272zm5.854-2.128l-1.45 1.032a2.06 2.06 0 0 1-1.202.384h-.007l-2.062.064-.407-1.193.247-.151a.223.223 0 0 0 .083-.09 1.186 1.186 0 0 1 1.072-.67c.331 0 .64.134.867.375a.223.223 0 0 0 .16.069h.686a.25.25 0 0 1 0 .497H4.69a.22.22 0 0 0 0 .44h1.24a.684.684 0 0 0 .67-.526L7.62.672l.003-.003a.278.278 0 0 1 .32.454z"/></svg></svg></svg></svg>