<svg width="19" height="18" xmlns="http://www.w3.org/2000/svg" xmlns:xlink="http://www.w3.org/1999/xlink" xmlns:svgjs="http://svgjs.com/svgjs" viewBox="179 68 19 18"><svg width="19" height="18" xmlns="http://www.w3.org/2000/svg" xmlns:xlink="http://www.w3.org/1999/xlink" xmlns:svgjs="http://svgjs.com/svgjs" viewBox="0.5 0 18 18" fill="#28246b" x="179" y="68"><svg xmlns="http://www.w3.org/2000/svg" xmlns:xlink="http://www.w3.org/1999/xlink" width="19" height="18" viewBox="1 0.25 17.5 17.5"><path paint-order="stroke fill markers" fill-rule="evenodd" d="M9.75 17.75A8.742 8.742 0 0 1 1 9 8.742 8.742 0 0 1 9.75.25 8.742 8.742 0 0 1 18.5 9a8.742 8.742 0 0 1-8.75 8.75z"/></svg></svg><svg width="8" height="8" xmlns="http://www.w3.org/2000/svg" xmlns:xlink="http://www.w3.org/1999/xlink" xmlns:svgjs="http://svgjs.com/svgjs" viewBox="185 73 8 8" x="185" y="73"><svg width="8" height="8" xmlns="http://www.w3.org/2000/svg" xmlns:xlink="http://www.w3.org/1999/xlink" xmlns:svgjs="http://svgjs.com/svgjs" viewBox="185 73 8 8" x="185" y="73"><svg width="8" height="8" xmlns="http://www.w3.org/2000/svg" xmlns:xlink="http://www.w3.org/1999/xlink" xmlns:svgjs="http://svgjs.com/svgjs" fill="#fff" stroke-miterlimit="100" stroke="#fff" stroke-width=".3" x="185" y="73"><svg xmlns="http://www.w3.org/2000/svg" width="8" height="8" viewBox="0.5 0.75 6.5 6.5"><path paint-order="stroke fill markers" fill-rule="evenodd" d="M6.048 4.952a3.24 3.24 0 0 0-1.235-.775 1.88 1.88 0 1 0-2.126 0c-.46.159-.881.42-1.235.775A3.23 3.23 0 0 0 .5 7.25h.507A2.745 2.745 0 0 1 3.75 4.508 2.745 2.745 0 0 1 6.492 7.25H7a3.23 3.23 0 0 0-.952-2.298zM3.75 4a1.373 1.373 0 0 1-1.371-1.371c0-.756.615-1.371 1.37-1.371.757 0 1.372.615 1.372 1.37C5.121 3.386 4.506 4 3.75 4z"/></svg></svg></svg></svg></svg>