<svg xmlns="http://www.w3.org/2000/svg" width="22.8" height="22.8" viewBox="0 0 22.8 22.8">
  <g id="Password" transform="translate(-2.1 -2.1)">
    <path id="Path_582" data-name="Path 582" d="M18.376,2.25H8.623C4.8,2.25,2.25,4.987,2.25,8.906v9.189c0,3.923,2.544,6.656,6.373,6.656h9.751c3.83,0,6.375-2.733,6.375-6.656V8.906C24.75,4.983,22.2,2.25,18.376,2.25ZM8.623,3.938h9.753c2.869,0,4.687,1.952,4.687,4.968v9.189c0,3.016-1.818,4.968-4.688,4.968H8.623c-2.869,0-4.686-1.951-4.686-4.968V8.906C3.938,5.893,5.76,3.938,8.623,3.938Zm1.322,6.635a2.927,2.927,0,1,0,2.8,3.771H15.11v1.239l.008.115a.844.844,0,0,0,1.68-.115V14.344h1.494v1.24l.008.115a.844.844,0,0,0,1.68-.115V13.5l-.008-.115a.844.844,0,0,0-.836-.729H12.748A2.929,2.929,0,0,0,9.945,10.573Zm0,1.688A1.24,1.24,0,1,1,8.706,13.5,1.24,1.24,0,0,1,9.945,12.26Z" fill="#28246b" fill-rule="evenodd"/>
    <path id="Path_583" data-name="Path 583" d="M12.749,14.344v-.15h-.112L12.6,14.3Zm2.362,0h.15v-.15h-.15Zm0,1.239h-.15v.01Zm.008.115-.15.01v.01Zm1.68-1.354v-.15h-.15v.15Zm1.494,0h.15v-.15h-.15Zm0,1.24h-.15v.01Zm.008.115-.15.01v.01Zm1.68-2.2h.15v-.01Zm-.008-.115.15-.01v-.01Zm-3.985-.729-.006.15h.006Zm-.066,0v.15h.006Zm-3.173,0L12.6,12.7l.032.107h.111ZM8.623,2.4h9.753V2.1H8.623ZM2.4,8.906A6.682,6.682,0,0,1,4.112,4.212,6.062,6.062,0,0,1,8.623,2.4V2.1A6.361,6.361,0,0,0,3.894,4,6.981,6.981,0,0,0,2.1,8.906Zm0,9.189V8.906H2.1v9.189ZM8.623,24.6a6.062,6.062,0,0,1-4.514-1.81,6.684,6.684,0,0,1-1.709-4.7H2.1A6.983,6.983,0,0,0,3.892,23a6.361,6.361,0,0,0,4.731,1.9Zm9.751,0H8.623v.3h9.751ZM24.6,18.094a6.683,6.683,0,0,1-1.71,4.7,6.066,6.066,0,0,1-4.515,1.81v.3A6.365,6.365,0,0,0,23.107,23a6.981,6.981,0,0,0,1.793-4.9Zm0-9.189v9.189h.3V8.906ZM18.376,2.4A6.064,6.064,0,0,1,22.89,4.21a6.683,6.683,0,0,1,1.71,4.7h.3A6.982,6.982,0,0,0,23.108,4a6.363,6.363,0,0,0-4.732-1.9Zm0,1.387H8.623v.3h9.753Zm4.837,5.118A5.3,5.3,0,0,0,21.9,5.188a4.7,4.7,0,0,0-3.529-1.4v.3a4.4,4.4,0,0,1,3.31,1.306,5.006,5.006,0,0,1,1.227,3.512Zm0,9.189V8.906h-.3v9.189Zm-4.838,5.118a4.7,4.7,0,0,0,3.53-1.4,5.3,5.3,0,0,0,1.308-3.718h-.3a5.006,5.006,0,0,1-1.227,3.512,4.4,4.4,0,0,1-3.311,1.306Zm-9.751,0h9.751v-.3H8.623ZM3.787,18.094A5.3,5.3,0,0,0,5.1,21.812a4.694,4.694,0,0,0,3.528,1.4v-.3a4.4,4.4,0,0,1-3.309-1.306,5.007,5.007,0,0,1-1.226-3.513Zm0-9.189v9.189h.3V8.906ZM8.623,3.787A4.693,4.693,0,0,0,5.1,5.189a5.3,5.3,0,0,0-1.31,3.716h.3A5.005,5.005,0,0,1,5.316,5.395,4.395,4.395,0,0,1,8.623,4.088ZM7.169,13.5a2.777,2.777,0,0,1,2.776-2.777v-.3A3.078,3.078,0,0,0,6.869,13.5Zm2.776,2.777A2.777,2.777,0,0,1,7.169,13.5h-.3a3.077,3.077,0,0,0,3.076,3.077ZM12.6,14.3a2.779,2.779,0,0,1-2.66,1.977v.3a3.079,3.079,0,0,0,2.947-2.19Zm2.505-.107H12.749v.3H15.11Zm.15,1.389V14.344h-.3v1.239Zm.007.1-.008-.115-.3.02.008.115Zm.686.589a.694.694,0,0,1-.687-.6l-.3.04a.994.994,0,0,0,.985.859Zm.694-.694a.694.694,0,0,1-.694.694v.3a.994.994,0,0,0,.994-.994Zm0-1.239v1.239h.3V14.344Zm1.644-.15H16.8v.3h1.494Zm.15,1.39v-1.24h-.3v1.24Zm.007.1-.008-.115-.3.02.008.114Zm.686.589a.694.694,0,0,1-.687-.6l-.3.04a.994.994,0,0,0,.985.859Zm.694-.694a.694.694,0,0,1-.694.694v.3a.994.994,0,0,0,.994-.994Zm0-2.083v2.083h.3V13.5Zm-.007-.1.008.115.3-.02-.008-.115Zm-.686-.589a.694.694,0,0,1,.687.6l.3-.04a.994.994,0,0,0-.985-.859Zm-3.149,0h3.149v-.3H15.987Zm-.033,0h.027l.012-.3h-.039Zm-.027,0h.027v-.3h-.039Zm-3.178,0h3.173v-.3H12.748Zm-2.8-2.083A2.779,2.779,0,0,1,12.6,12.7l.287-.086a3.079,3.079,0,0,0-2.947-2.19Zm1.39,2.777a1.39,1.39,0,0,0-1.39-1.39v.3a1.09,1.09,0,0,1,1.09,1.09Zm-1.39,1.39a1.39,1.39,0,0,0,1.39-1.39h-.3a1.09,1.09,0,0,1-1.09,1.09ZM8.556,13.5a1.39,1.39,0,0,0,1.389,1.39v-.3A1.09,1.09,0,0,1,8.856,13.5Zm1.389-1.39A1.39,1.39,0,0,0,8.556,13.5h.3a1.09,1.09,0,0,1,1.089-1.09Z" fill="#28246b"/>
  </g>
</svg>
