<svg xmlns="http://www.w3.org/2000/svg" width="28.844" height="28.503" viewBox="0 0 28.844 28.503">
  <path id="home" d="M27.748,12.179l0,0L16.323.755a2.578,2.578,0,0,0-3.646,0L1.26,12.171l-.012.012a2.577,2.577,0,0,0,1.715,4.392c.026,0,.053,0,.08,0H3.5v8.406A3.021,3.021,0,0,0,6.516,28h4.469a.82.82,0,0,0,.82-.82V20.591a1.378,1.378,0,0,1,1.377-1.377h2.636a1.378,1.378,0,0,1,1.377,1.377v6.591a.82.82,0,0,0,.82.82h4.469A3.021,3.021,0,0,0,25.5,24.985V16.579h.422a2.578,2.578,0,0,0,1.825-4.4Zm-1.162,2.484a.931.931,0,0,1-.663.275H24.681a.82.82,0,0,0-.82.82v9.226a1.378,1.378,0,0,1-1.377,1.376H18.835v-5.77a3.021,3.021,0,0,0-3.017-3.017H13.182a3.021,3.021,0,0,0-3.018,3.017v5.77H6.516a1.378,1.378,0,0,1-1.377-1.376V15.759a.82.82,0,0,0-.82-.82H3.1l-.038,0a.936.936,0,0,1-.645-1.6h0L13.837,1.915a.937.937,0,0,1,1.325,0l11.42,11.42.005.005a.939.939,0,0,1,0,1.324Zm0,0" transform="translate(-0.078 0.251)" fill="#28246b" stroke="#28246b" stroke-width="0.5"/>
</svg>
