<?xml version="1.0"?>
<svg xmlns="http://www.w3.org/2000/svg" xmlns:xlink="http://www.w3.org/1999/xlink" xmlns:svgjs="http://svgjs.com/svgjs" version="1.1" width="512" height="512" x="0" y="0" viewBox="0 0 511.612 511.612" style="enable-background:new 0 0 512 512" xml:space="preserve" class=""><g><g xmlns="http://www.w3.org/2000/svg"><path d="m177.236 28.246c4.638 0 8.643-5.416 7.1-9.93-1.34-3.92-5.61-6.01-9.53-4.67s-6.01 5.6-4.67 9.52c1.071 3.12 3.98 5.08 7.1 5.08z" fill="#7cc249" data-original="#000000" style=""/><path d="m140.597 44.186c5.151 0 9.121-6.34 6.61-11.04-1.95-3.65-6.49-5.03-10.15-3.08-3.65 1.95-5.03 6.5-3.08 10.15 1.35 2.53 3.94 3.97 6.62 3.97z" fill="#7cc249" data-original="#000000" style=""/><path d="m106.966 65.746c5.722 0 9.513-7.359 5.96-12.03-2.5-3.3-7.2-3.94-10.5-1.44s-3.95 7.21-1.45 10.51c1.481 1.94 3.72 2.96 5.99 2.96z" fill="#7cc249" data-original="#000000" style=""/><path d="m71.917 90.226c3.566 2.855 7.102 2.785 10.61-.21 2.86-2.99 2.77-7.74-.22-10.61s-7.73-2.77-10.6.22-2.781 7.73.21 10.6z" fill="#7cc249" data-original="#000000" style=""/><path d="m15.107 194.626c3.657 1.081 8.233-1.378 9.32-5.07 1.17-3.97-1.09-8.14-5.07-9.32-3.97-1.17-8.14 1.1-9.31 5.07-1.18 3.97 1.089 8.14 5.06 9.32z" fill="#7cc249" data-original="#000000" style=""/><path d="m7.817 273.936c4.14-.17 7.36-3.67 7.18-7.81-.17-4.14-3.67-7.35-7.81-7.18-4.14.18-7.35 3.68-7.18 7.82.164 4.138 3.713 7.364 7.81 7.17z" fill="#7cc249" data-original="#000000" style=""/><path d="m19.817 304.526c-.85-4.05-4.83-6.65-8.88-5.79-4.06.85-6.65 4.83-5.8 8.88 1.979 9.318 16.686 6.467 14.68-3.09z" fill="#7cc249" data-original="#000000" style=""/><path d="m8.187 233.976c4.035.527 7.871-2.398 8.36-6.52.5-4.12-2.42-7.86-6.53-8.36-4.11-.51-7.85 2.41-8.36 6.52-.51 4.11 2.42 7.86 6.53 8.36z" fill="#7cc249" data-original="#000000" style=""/><path d="m293.267 18.176c3.734.547 7.992-2.42 8.6-6.21.66-4.09-2.12-7.94-6.2-8.6-4.09-.66-7.94 2.12-8.61 6.21-.66 4.08 2.119 7.94 6.21 8.6z" fill="#7cc249" data-original="#000000" style=""/><path d="m433.616 91.446c1.88 0 3.76-.7 5.22-2.11 2.98-2.89 3.05-7.64.17-10.61-2.89-2.97-7.63-3.05-10.61-.16-2.97 2.88-3.05 7.63-.16 10.6 1.471 1.52 3.42 2.28 5.38 2.28z" fill="#7cc249" data-original="#000000" style=""/><path d="m459.107 122.226c1.49 0 3-.45 4.31-1.37 7.922-5.99-.311-17.701-8.63-12.27-3.39 2.39-4.2 7.06-1.82 10.45 1.459 2.08 3.78 3.19 6.14 3.19z" fill="#7cc249" data-original="#000000" style=""/><path d="m494.886 226.376c.472 3.636 4.68 7.041 8.4 6.48 4.1-.52 7.01-4.28 6.48-8.39-.52-4.11-4.28-7.01-8.39-6.49-4.109.53-7.01 4.29-6.49 8.4z" fill="#7cc249" data-original="#000000" style=""/><path d="m215.977 18.456c4.179 0 8.104-4.563 7.41-8.73-.69-4.09-4.55-6.85-8.63-6.17-4.09.68-6.85 4.55-6.17 8.63.609 3.67 3.79 6.27 7.39 6.27z" fill="#7cc249" data-original="#000000" style=""/><path d="m486.827 188.486c1.116 3.7 5.68 6.099 9.34 5.03 3.97-1.2 6.22-5.38 5.03-9.35-1.2-3.96-5.38-6.21-9.35-5.02-3.961 1.19-6.211 5.37-5.02 9.34z" fill="#7cc249" data-original="#000000" style=""/><path d="m399.147 63.516c3.705 2.426 7.205 1.929 10.5-1.49 2.49-3.31 1.82-8.01-1.49-10.5s-8.01-1.82-10.5 1.49-1.82 8.01 1.49 10.5z" fill="#7cc249" data-original="#000000" style=""/><path d="m21.167 337.386c-3.86 1.5-5.77 5.85-4.27 9.71 1.427 3.641 6.108 5.647 9.71 4.27 9.128-3.929 3.928-17.269-5.44-13.98z" fill="#7cc249" data-original="#000000" style=""/><path d="m366.426 42.756c3.458 1.837 8.301.35 10.13-3.13 1.94-3.66.54-8.2-3.13-10.13-3.66-1.94-8.2-.54-10.13 3.12-1.939 3.67-.54 8.2 3.13 10.14z" fill="#7cc249" data-original="#000000" style=""/><path d="m255.787 15.166c4.14 0 7.5-3.36 7.5-7.5-.346-9.928-14.656-9.925-15 0 0 4.14 3.36 7.5 7.5 7.5z" fill="#7cc249" data-original="#000000" style=""/><path d="m330.847 27.476c3.62 1.238 8.28-1.073 9.5-4.72 1.32-3.92-.79-8.18-4.72-9.5-3.92-1.32-8.17.79-9.5 4.72-1.32 3.92.79 8.18 4.72 9.5z" fill="#7cc249" data-original="#000000" style=""/><path d="m47.497 121.866c3.737 2.276 7.217 1.653 10.44-1.87 2.37-3.4 1.53-8.07-1.87-10.44-8.342-5.394-16.524 6.36-8.57 12.31z" fill="#7cc249" data-original="#000000" style=""/><path d="m452.816 406.336c-3.21-2.62-7.93-2.14-10.55 1.06-2.62 3.21-2.14 7.94 1.07 10.56 3.662 2.566 7.179 2.21 10.55-1.07 2.62-3.21 2.14-7.93-1.07-10.55z" fill="#7cc249" data-original="#000000" style=""/><path d="m474.607 372.836c-3.58-2.09-8.17-.88-10.26 2.71-2.08 3.58-.87 8.17 2.71 10.25 3.422 1.984 8.261.703 10.26-2.71 2.08-3.58.87-8.17-2.71-10.25z" fill="#7cc249" data-original="#000000" style=""/><path d="m415.466 435.426c-3.09 2.76-3.36 7.51-.59 10.59 3.446 3.12 6.976 3.32 10.59.6 3.08-2.77 3.35-7.51.59-10.59-2.769-3.09-7.51-3.36-10.59-.6z" fill="#7cc249" data-original="#000000" style=""/><path d="m384.616 458.936c-3.48 2.24-4.48 6.88-2.24 10.36 3.146 3.642 6.603 4.392 10.37 2.25 3.48-2.25 4.48-6.89 2.24-10.37-2.25-3.48-6.889-4.48-10.37-2.24z" fill="#7cc249" data-original="#000000" style=""/><path d="m350.466 477.276c-3.79 1.66-5.52 6.08-3.86 9.87 1.563 3.583 6.331 5.428 9.88 3.87 3.79-1.66 5.52-6.09 3.86-9.88-1.659-3.8-6.079-5.53-9.88-3.86z" fill="#7cc249" data-original="#000000" style=""/><path d="m486.176 145.836c-1.82-3.73-6.31-5.27-10.03-3.46-3.72 1.82-5.27 6.31-3.45 10.03 1.724 3.54 6.52 5.172 10.03 3.45 3.72-1.81 5.271-6.3 3.45-10.02z" fill="#7cc249" data-original="#000000" style=""/><path d="m504.397 257.826c-4.14-.15-7.62 3.08-7.78 7.21-.15 4.14 3.08 7.62 7.21 7.78 3.738.367 7.652-3.768 7.78-7.21.16-4.14-3.07-7.62-7.21-7.78z" fill="#7cc249" data-original="#000000" style=""/><path d="m500.837 297.626c-4.06-.83-8.03 1.78-8.86 5.84-.83 4.05 1.78 8.02 5.84 8.85 3.696.796 8.092-2.143 8.85-5.83.839-4.06-1.781-8.03-5.83-8.86z" fill="#7cc249" data-original="#000000" style=""/><path d="m313.837 489.876c-4.01 1.03-6.44 5.11-5.41 9.12.936 3.698 5.442 6.367 9.12 5.42 4.01-1.03 6.43-5.11 5.41-9.12s-5.11-6.44-9.12-5.42z" fill="#7cc249" data-original="#000000" style=""/><path d="m490.787 336.306c-3.87-1.49-8.21.45-9.69 4.31-1.49 3.87.44 8.21 4.31 9.69 3.593 1.374 8.298-.67 9.69-4.31 1.48-3.87-.45-8.21-4.31-9.69z" fill="#7cc249" data-original="#000000" style=""/><path d="m236.966 496.416c-4.13-.34-7.74 2.74-8.08 6.87-.33 4.13 2.75 7.75 6.88 8.08 4.072.334 7.758-2.73 8.08-6.88.33-4.13-2.749-7.74-6.88-8.07z" fill="#7cc249" data-original="#000000" style=""/><path d="m96.966 436.196c-3.1-2.75-7.84-2.46-10.59.64-2.74 3.1-2.46 7.84.64 10.58 3.617 2.717 7.147 2.504 10.59-.64 2.751-3.1 2.461-7.84-.64-10.58z" fill="#7cc249" data-original="#000000" style=""/><path d="m127.917 459.546c-3.5-2.23-8.13-1.2-10.36 2.29s-1.2 8.13 2.29 10.36c3.768 2.136 7.222 1.373 10.36-2.29 2.219-3.49 1.199-8.13-2.29-10.36z" fill="#7cc249" data-original="#000000" style=""/><path d="m275.676 496.326c-4.13.35-7.19 3.98-6.84 8.11.333 4.136 4.047 7.206 8.11 6.83 4.12-.35 7.18-3.98 6.83-8.1-.35-4.13-3.98-7.19-8.1-6.84z" fill="#7cc249" data-original="#000000" style=""/><path d="m162.127 477.716c-3.8-1.64-8.22.11-9.86 3.91s.11 8.22 3.91 9.86c3.561 1.541 8.301-.323 9.86-3.91 1.639-3.8-.111-8.21-3.91-9.86z" fill="#7cc249" data-original="#000000" style=""/><path d="m37.526 373.856c-3.57 2.1-4.76 6.7-2.66 10.27 2.012 3.42 6.854 4.653 10.27 2.66 3.57-2.1 4.76-6.69 2.66-10.27-2.1-3.57-6.699-4.76-10.27-2.66z" fill="#7cc249" data-original="#000000" style=""/><path d="m59.477 407.266c-3.2 2.64-3.65 7.36-1.02 10.56 3.379 3.26 6.899 3.6 10.56 1.02 3.2-2.64 3.65-7.36 1.02-10.56-2.64-3.2-7.37-3.65-10.56-1.02z" fill="#7cc249" data-original="#000000" style=""/><path d="m198.776 490.146c-4.02-1.01-8.09 1.43-9.1 5.45-1 4.02 1.44 8.09 5.46 9.1 3.686.905 8.164-1.748 9.1-5.46 1-4.02-1.44-8.09-5.46-9.09z" fill="#7cc249" data-original="#000000" style=""/><path d="m38.377 153.446c1.8-3.73.23-8.21-3.5-10.01s-8.21-.24-10.01 3.49c-1.8 3.74-.24 8.22 3.5 10.02 3.513 1.673 8.303.046 10.01-3.5z" fill="#7cc249" data-original="#000000" style=""/><path d="m259.733 33.118c-50.078-.869-97.552 14.399-137.345 44.203-7.762 5.813 1.23 17.817 8.992 12.006 37.1-27.786 81.414-42.047 128.087-41.21 111.866-.326 208.665 99.939 204.368 211.732-3.451 184.679-229.381 273.588-357.765 140.828-76.16-75.77-77.39-208.284-3.164-285.682 6.588-7.115-4.419-17.306-11.007-10.19-79.574 82.997-78.29 225.043 3.381 306.291 137.642 142.329 379.86 47.007 383.554-150.985 4.593-119.839-99.164-227.357-219.101-226.993z" fill="#7cc249" data-original="#000000" style=""/><path d="m255.787 439.249c100.952 0 183.083-82.131 183.083-183.083-10.057-242.884-356.146-242.814-366.167.002.001 100.95 82.132 183.081 183.084 183.081zm0-351.166c92.681 0 168.083 75.402 168.083 168.083-9.233 222.985-326.967 222.92-336.166-.001 0-92.68 75.402-168.082 168.083-168.082z" fill="#7cc249" data-original="#000000" style=""/><path d="m149.692 283.391 53.1 49.993c10.605 9.971 27.21 9.961 37.816-.011l42.815-40.429c7.051-6.658-3.248-17.565-10.298-10.906l-42.804 40.418c-4.756 4.473-12.497 4.472-17.25.003l-53.1-49.993c-6.805-6.398-3.032-14.048.27-17.56 1.401-1.49 8.809-8.54 16.98-.856l39.332 37.046c2.892 2.723 7.405 2.72 10.293-.008l107.263-101.339c6.782-6.375 14.157-2.156 17.446 1.342 1.407 1.497 8.012 9.354-.204 17.079l-49.488 46.73c-7.051 6.658 3.246 17.562 10.298 10.906l49.477-46.719c12.833-12.066 10.138-28.386.845-38.271-9.274-9.864-25.972-13.915-38.662-1.983l-102.134 96.493-34.187-32.2c-12.814-12.049-28.909-8.363-38.188 1.504-9.289 9.882-12.313 26.825.38 38.761z" fill="#7cc249" data-original="#000000" style=""/></g></g></svg>
