<svg xmlns="http://www.w3.org/2000/svg" width="22.5" height="19.433" viewBox="0 0 22.5 19.433">
  <path id="Hide" d="M22.97,3.622a.844.844,0,0,1,0,1.194L5.224,22.56a.843.843,0,0,1-1.193-1.192L6.25,19.151a16.594,16.594,0,0,1-3.931-5.725.839.839,0,0,1,0-.667A16.217,16.217,0,0,1,7,6.393a10.257,10.257,0,0,1,12.429-.422l2.35-2.35A.843.843,0,0,1,22.97,3.622Zm-.417,5.424a18.163,18.163,0,0,1,2.127,3.71.835.835,0,0,1,0,.669c-2.358,5.464-6.537,8.725-11.18,8.725a9.867,9.867,0,0,1-3.115-.507.844.844,0,1,1,.533-1.6,8.151,8.151,0,0,0,2.582.422c3.857,0,7.381-2.747,9.484-7.372a16.31,16.31,0,0,0-1.779-3.031.844.844,0,1,1,1.348-1.015ZM8.043,7.719a14.328,14.328,0,0,0-4.026,5.375,14.649,14.649,0,0,0,3.427,4.862l2.405-2.4A4.353,4.353,0,0,1,9.1,13.093,4.4,4.4,0,0,1,15.96,9.44l2.252-2.252A8.534,8.534,0,0,0,8.043,7.719Zm9.1,5.176a.844.844,0,0,1,.682.98,4.409,4.409,0,0,1-3.534,3.54.876.876,0,0,1-.152.014.844.844,0,0,1-.15-1.674,2.71,2.71,0,0,0,2.174-2.179A.848.848,0,0,1,17.142,12.894ZM13.5,10.374a2.72,2.72,0,0,0-2.716,2.719,2.688,2.688,0,0,0,.295,1.228L14.73,10.67A2.715,2.715,0,0,0,13.5,10.374Z" transform="translate(-2.25 -3.375)" fill="#28246b" fill-rule="evenodd"/>
</svg>
