<svg width="27" height="21" xmlns="http://www.w3.org/2000/svg" xmlns:xlink="http://www.w3.org/1999/xlink" xmlns:svgjs="http://svgjs.com/svgjs" viewBox="243 105 27 21"><svg width="27" height="19" xmlns="http://www.w3.org/2000/svg" xmlns:xlink="http://www.w3.org/1999/xlink" xmlns:svgjs="http://svgjs.com/svgjs" viewBox="0 0.167 27 18.665" fill="#28246b" x="243" y="105"><svg xmlns="http://www.w3.org/2000/svg" xmlns:xlink="http://www.w3.org/1999/xlink" width="27" height="19" viewBox="0.323 0.172 25.908 17.91"><path paint-order="stroke fill markers" fill-rule="evenodd" d="M21.909 6.911A8.905 8.905 0 0 0 4.39 8.433a4.857 4.857 0 0 0 .81 9.65h4.047v-1.62H5.2a3.238 3.238 0 0 1 0-6.475.81.81 0 0 0 .81-.81 7.286 7.286 0 0 1 14.434-1.417.81.81 0 0 0 .688.648 4.048 4.048 0 0 1-.55 8.055h-3.239v1.619h3.238A5.667 5.667 0 0 0 21.91 6.91z"/></svg></svg><svg width="9" height="12" xmlns="http://www.w3.org/2000/svg" xmlns:xlink="http://www.w3.org/1999/xlink" xmlns:svgjs="http://svgjs.com/svgjs" viewBox="0.157 0 8.685 12" fill="#28246b" x="252" y="114"><svg xmlns="http://www.w3.org/2000/svg" width="9" height="12" viewBox="0.483 0.987 7.617 10.525"><path paint-order="stroke fill markers" fill-rule="evenodd" d="M3.72 1.222L.484 4.461l1.14 1.141 1.863-1.854v7.764h1.619V3.748l1.854 1.854L8.1 4.461 4.862 1.222a.81.81 0 0 0-1.141 0z"/></svg></svg></svg>