<svg xmlns="http://www.w3.org/2000/svg" width="24.24" height="20.556" viewBox="0 0 24.24 20.556">
  <g id="email" transform="translate(-1.568 -3.67)">
    <path id="Path_580" data-name="Path 580" d="M20.224,10.7l-4.933,3.723a2.707,2.707,0,0,1-3.175,0L7.141,10.7" fill="none" stroke="#28246b" stroke-linecap="round" stroke-linejoin="round" stroke-width="2"/>
    <path id="Path_581" data-name="Path 581" d="M8.221,4.67h10.9a5.912,5.912,0,0,1,4.14,1.724A5.241,5.241,0,0,1,24.8,10.409v7.077A5.241,5.241,0,0,1,23.263,21.5a5.911,5.911,0,0,1-4.14,1.724H8.221a5.543,5.543,0,0,1-5.652-5.74V10.409A5.543,5.543,0,0,1,8.221,4.67Z" fill="none" stroke="#28246b" stroke-linecap="round" stroke-linejoin="round" stroke-width="2" fill-rule="evenodd"/>
  </g>
</svg>
