<svg xmlns="http://www.w3.org/2000/svg" width="22.5" height="22.5" viewBox="0 0 22.5 22.5">
  <path id="Path_582" data-name="Path 582" d="M18.376,2.25H8.623C4.8,2.25,2.25,4.987,2.25,8.906v9.189c0,3.923,2.544,6.656,6.373,6.656h9.751c3.83,0,6.375-2.733,6.375-6.656V8.906C24.75,4.983,22.2,2.25,18.376,2.25ZM8.623,3.938h9.753c2.869,0,4.687,1.952,4.687,4.968v9.189c0,3.016-1.818,4.968-4.688,4.968H8.623c-2.869,0-4.686-1.951-4.686-4.968V8.906C3.938,5.893,5.76,3.938,8.623,3.938Zm1.322,6.635a2.927,2.927,0,1,0,2.8,3.771H15.11v1.239l.008.115a.844.844,0,0,0,1.68-.115V14.344h1.494v1.24l.008.115a.844.844,0,0,0,1.68-.115V13.5l-.008-.115a.844.844,0,0,0-.836-.729H12.748A2.929,2.929,0,0,0,9.945,10.573Zm0,1.688A1.24,1.24,0,1,1,8.706,13.5,1.24,1.24,0,0,1,9.945,12.26Z" transform="translate(-2.25 -2.25)" fill="#28246b" fill-rule="evenodd"/>
</svg>
